<svg id="SvgjsSvg1001" width="288" height="288" xmlns="http://www.w3.org/2000/svg" version="1.1" xmlns:xlink="http://www.w3.org/1999/xlink" xmlns:svgjs="http://svgjs.com/svgjs"><defs id="SvgjsDefs1002"></defs><g id="SvgjsG1008" transform="matrix(0.9167,0,0,0.9167,11.995199364471432,11.995200000000011)"><svg xmlns="http://www.w3.org/2000/svg" data-name="Layer 1" viewBox="0 0 48 48" width="288" height="288"><path fill="#7d8c94" d="M38,24a1,1,0,0,0-1,1,13,13,0,0,1-26,0,1,1,0,0,0-2,0A15,15,0,0,0,23,40v3a1,1,0,0,0,2,0V40A15,15,0,0,0,39,25,1,1,0,0,0,38,24Z" class="color42c3cf svgShape"></path><path fill="#7d8c94" d="M24,36A11,11,0,0,0,35,25V15a11,11,0,0,0-22,0V25A11,11,0,0,0,24,36Z" class="color42c3cf svgShape"></path></svg></g></svg>